# xmcd
#
# Track frame offsets:
#	150
#	9024
#	18063
#	29991
#	40494
#	49605
#	58887
#	69660
#	79482
#	89235
#	99054
#
# Disc length: 1524 seconds
#
# Revision: 0
# Processed by: cddbd v1.5.2PL0 Copyright (c) Steve Scherf et al.
# Submitted via: audiograbber 1.83.01
#
DISCID=8d05f20b
DTITLE=Patton Family Singers - Look on the Brighter Side
DYEAR=2008
DGENRE=Gospel
TTITLE0=Look On The Brighter Side
TTITLE1=I Hold His Hand
TTITLE2=Sing And Be Happy
TTITLE3=Heavenly Sunlight
TTITLE4=Hallelujah! What A Savior
TTITLE5=I'll Live In Glory
TTITLE6=Paradise Valley
TTITLE7=Where The Soul Never Dies
TTITLE8=What A Happy Time
TTITLE9=He Bore It All
TTITLE10=The New Song
EXTD=
EXTT0=
EXTT1=
EXTT2=
EXTT3=
EXTT4=
EXTT5=
EXTT6=
EXTT7=
EXTT8=
EXTT9=
EXTT10=
PLAYORDER=
